<?xml version="1.0" encoding="UTF-8" standalone="no"?>
<!DOCTYPE svg PUBLIC "-//W3C//DTD SVG 1.1//EN"
 "http://www.w3.org/Graphics/SVG/1.1/DTD/svg11.dtd">
<!-- Generated by graphviz version 2.40.1 (20161225.0304)
 -->
<!-- Title: dependencies Pages: 1 -->
<svg width="2232pt" height="284pt"
 viewBox="0.00 0.00 2232.00 284.00" xmlns="http://www.w3.org/2000/svg" xmlns:xlink="http://www.w3.org/1999/xlink">
<g id="graph0" class="graph" transform="scale(1 1) rotate(0) translate(4 280)">
<title>dependencies</title>
<polygon fill="#ffffff" stroke="transparent" points="-4,4 -4,-280 2228,-280 2228,4 -4,4"/>
<text text-anchor="start" x="1091.0091" y="-42.4" font-family="sans-serif" font-weight="bold" font-size="14.00" fill="#000000">Legend</text>
<polygon fill="#ffffb3" stroke="transparent" points="878,-10 878,-30 898,-30 898,-10 878,-10"/>
<text text-anchor="start" x="901.629" y="-15.4" font-family="sans-serif" font-size="14.00" fill="#000000"> &#160;Declarations</text>
<polygon fill="#8dd3c7" stroke="transparent" points="991,-10 991,-30 1011,-30 1011,-10 991,-10"/>
<text text-anchor="start" x="1014.7251" y="-15.4" font-family="sans-serif" font-size="14.00" fill="#000000"> &#160;Module</text>
<polygon fill="#80b1d3" stroke="transparent" points="1077,-10 1077,-30 1097,-30 1097,-10 1077,-10"/>
<text text-anchor="start" x="1100.7812" y="-15.4" font-family="sans-serif" font-size="14.00" fill="#000000"> &#160;Bootstrap</text>
<polygon fill="#fdb462" stroke="transparent" points="1174,-10 1174,-30 1194,-30 1194,-10 1174,-10"/>
<text text-anchor="start" x="1197.6732" y="-15.4" font-family="sans-serif" font-size="14.00" fill="#000000"> &#160;Providers</text>
<polygon fill="#fb8072" stroke="transparent" points="1270,-10 1270,-30 1290,-30 1290,-10 1270,-10"/>
<text text-anchor="start" x="1293.7258" y="-15.4" font-family="sans-serif" font-size="14.00" fill="#000000"> &#160;Exports</text>
<g id="clust1" class="cluster">
<title>cluster_AppModule</title>
<polygon fill="none" stroke="#000000" stroke-dasharray="1,5" points="8,-70 8,-268 2216,-268 2216,-70 8,-70"/>
</g>
<g id="clust2" class="cluster">
<title>cluster_AppModule_declarations</title>
<polygon fill="none" stroke="#000000" points="713,-78 713,-130 2208,-130 2208,-78 713,-78"/>
</g>
<g id="clust13" class="cluster">
<title>cluster_AppModule_imports</title>
<polygon fill="none" stroke="#000000" points="561,-78 561,-130 705,-130 705,-78 561,-78"/>
</g>
<g id="clust15" class="cluster">
<title>cluster_AppModule_bootstrap</title>
<polygon fill="none" stroke="#000000" points="1044,-208 1044,-260 1168,-260 1168,-208 1044,-208"/>
</g>
<g id="clust16" class="cluster">
<title>cluster_AppModule_providers</title>
<polygon fill="none" stroke="#000000" points="16,-78 16,-130 553,-130 553,-78 16,-78"/>
</g>
<!-- AdminComponent -->
<g id="node1" class="node">
<title>AdminComponent</title>
<polygon fill="#ffffb3" stroke="#000000" points="2200.2204,-122 2079.7796,-122 2079.7796,-86 2200.2204,-86 2200.2204,-122"/>
<text text-anchor="middle" x="2140" y="-99.8" font-family="Times,serif" font-size="14.00" fill="#000000">AdminComponent</text>
</g>
<!-- AppModule -->
<g id="node11" class="node">
<title>AppModule</title>
<polygon fill="#8dd3c7" stroke="#000000" points="1147.6571,-187 1144.6571,-191 1123.6571,-191 1120.6571,-187 1064.3429,-187 1064.3429,-151 1147.6571,-151 1147.6571,-187"/>
<text text-anchor="middle" x="1106" y="-164.8" font-family="Times,serif" font-size="14.00" fill="#000000">AppModule</text>
</g>
<!-- AdminComponent&#45;&gt;AppModule -->
<g id="edge1" class="edge">
<title>AdminComponent&#45;&gt;AppModule</title>
<path fill="none" stroke="#000000" d="M2140,-122.3228C2140,-145.6602 2140,-183 2140,-183 2140,-183 1157.8147,-183 1157.8147,-183"/>
<polygon fill="#000000" stroke="#000000" points="1157.8147,-179.5001 1147.8147,-183 1157.8146,-186.5001 1157.8147,-179.5001"/>
</g>
<!-- AppComponent -->
<g id="node2" class="node">
<title>AppComponent</title>
<polygon fill="#ffffb3" stroke="#000000" points="2061.9399,-122 1956.0601,-122 1956.0601,-86 2061.9399,-86 2061.9399,-122"/>
<text text-anchor="middle" x="2009" y="-99.8" font-family="Times,serif" font-size="14.00" fill="#000000">AppComponent</text>
</g>
<!-- AppComponent&#45;&gt;AppModule -->
<g id="edge2" class="edge">
<title>AppComponent&#45;&gt;AppModule</title>
<path fill="none" stroke="#000000" d="M2009,-122.2921C2009,-144.2057 2009,-178 2009,-178 2009,-178 1157.7425,-178 1157.7425,-178"/>
<polygon fill="#000000" stroke="#000000" points="1157.7426,-174.5001 1147.7425,-178 1157.7425,-181.5001 1157.7426,-174.5001"/>
</g>
<!-- CarRegisterComponent -->
<g id="node3" class="node">
<title>CarRegisterComponent</title>
<polygon fill="#ffffb3" stroke="#000000" points="1938.1965,-122 1789.8035,-122 1789.8035,-86 1938.1965,-86 1938.1965,-122"/>
<text text-anchor="middle" x="1864" y="-99.8" font-family="Times,serif" font-size="14.00" fill="#000000">CarRegisterComponent</text>
</g>
<!-- CarRegisterComponent&#45;&gt;AppModule -->
<g id="edge3" class="edge">
<title>CarRegisterComponent&#45;&gt;AppModule</title>
<path fill="none" stroke="#000000" d="M1864,-122.0267C1864,-142.7672 1864,-174 1864,-174 1864,-174 1157.8331,-174 1157.8331,-174"/>
<polygon fill="#000000" stroke="#000000" points="1157.8331,-170.5001 1147.8331,-174 1157.833,-177.5001 1157.8331,-170.5001"/>
</g>
<!-- DriverRegisterComponent -->
<g id="node4" class="node">
<title>DriverRegisterComponent</title>
<polygon fill="#ffffb3" stroke="#000000" points="1772.0183,-122 1607.9817,-122 1607.9817,-86 1772.0183,-86 1772.0183,-122"/>
<text text-anchor="middle" x="1690" y="-99.8" font-family="Times,serif" font-size="14.00" fill="#000000">DriverRegisterComponent</text>
</g>
<!-- DriverRegisterComponent&#45;&gt;AppModule -->
<g id="edge4" class="edge">
<title>DriverRegisterComponent&#45;&gt;AppModule</title>
<path fill="none" stroke="#000000" d="M1690,-122.1061C1690,-141.3391 1690,-169 1690,-169 1690,-169 1157.9998,-169 1157.9998,-169"/>
<polygon fill="#000000" stroke="#000000" points="1157.9999,-165.5001 1147.9998,-169 1157.9998,-172.5001 1157.9999,-165.5001"/>
</g>
<!-- LoginComponent -->
<g id="node5" class="node">
<title>LoginComponent</title>
<polygon fill="#ffffb3" stroke="#000000" points="1589.2758,-122 1474.7242,-122 1474.7242,-86 1589.2758,-86 1589.2758,-122"/>
<text text-anchor="middle" x="1532" y="-99.8" font-family="Times,serif" font-size="14.00" fill="#000000">LoginComponent</text>
</g>
<!-- LoginComponent&#45;&gt;AppModule -->
<g id="edge5" class="edge">
<title>LoginComponent&#45;&gt;AppModule</title>
<path fill="none" stroke="#000000" d="M1532,-122.302C1532,-140.2699 1532,-165 1532,-165 1532,-165 1158.0124,-165 1158.0124,-165"/>
<polygon fill="#000000" stroke="#000000" points="1158.0124,-161.5001 1148.0124,-165 1158.0123,-168.5001 1158.0124,-161.5001"/>
</g>
<!-- MyCarComponent -->
<g id="node6" class="node">
<title>MyCarComponent</title>
<polygon fill="#ffffb3" stroke="#000000" points="1456.4888,-122 1335.5112,-122 1335.5112,-86 1456.4888,-86 1456.4888,-122"/>
<text text-anchor="middle" x="1396" y="-99.8" font-family="Times,serif" font-size="14.00" fill="#000000">MyCarComponent</text>
</g>
<!-- MyCarComponent&#45;&gt;AppModule -->
<g id="edge6" class="edge">
<title>MyCarComponent&#45;&gt;AppModule</title>
<path fill="none" stroke="#000000" d="M1396,-122.027C1396,-138.3976 1396,-160 1396,-160 1396,-160 1157.8588,-160 1157.8588,-160"/>
<polygon fill="#000000" stroke="#000000" points="1157.8588,-156.5001 1147.8588,-160 1157.8587,-163.5001 1157.8588,-156.5001"/>
</g>
<!-- NavbarComponent -->
<g id="node7" class="node">
<title>NavbarComponent</title>
<polygon fill="#ffffb3" stroke="#000000" points="1317.0297,-122 1194.9703,-122 1194.9703,-86 1317.0297,-86 1317.0297,-122"/>
<text text-anchor="middle" x="1256" y="-99.8" font-family="Times,serif" font-size="14.00" fill="#000000">NavbarComponent</text>
</g>
<!-- NavbarComponent&#45;&gt;AppModule -->
<g id="edge7" class="edge">
<title>NavbarComponent&#45;&gt;AppModule</title>
<path fill="none" stroke="#000000" d="M1256,-122.1871C1256,-137.1824 1256,-156 1256,-156 1256,-156 1157.7834,-156 1157.7834,-156"/>
<polygon fill="#000000" stroke="#000000" points="1157.7834,-152.5001 1147.7834,-156 1157.7833,-159.5001 1157.7834,-152.5001"/>
</g>
<!-- PreferenceComponent -->
<g id="node8" class="node">
<title>PreferenceComponent</title>
<polygon fill="#ffffb3" stroke="#000000" points="1176.6699,-122 1035.3301,-122 1035.3301,-86 1176.6699,-86 1176.6699,-122"/>
<text text-anchor="middle" x="1106" y="-99.8" font-family="Times,serif" font-size="14.00" fill="#000000">PreferenceComponent</text>
</g>
<!-- PreferenceComponent&#45;&gt;AppModule -->
<g id="edge8" class="edge">
<title>PreferenceComponent&#45;&gt;AppModule</title>
<path fill="none" stroke="#000000" d="M1106,-122.1061C1106,-122.1061 1106,-140.991 1106,-140.991"/>
<polygon fill="#000000" stroke="#000000" points="1102.5001,-140.9909 1106,-150.991 1109.5001,-140.991 1102.5001,-140.9909"/>
</g>
<!-- ProfileComponent -->
<g id="node9" class="node">
<title>ProfileComponent</title>
<polygon fill="#ffffb3" stroke="#000000" points="1017.9328,-122 898.0672,-122 898.0672,-86 1017.9328,-86 1017.9328,-122"/>
<text text-anchor="middle" x="958" y="-99.8" font-family="Times,serif" font-size="14.00" fill="#000000">ProfileComponent</text>
</g>
<!-- ProfileComponent&#45;&gt;AppModule -->
<g id="edge9" class="edge">
<title>ProfileComponent&#45;&gt;AppModule</title>
<path fill="none" stroke="#000000" d="M958,-122.1871C958,-137.1824 958,-156 958,-156 958,-156 1053.985,-156 1053.985,-156"/>
<polygon fill="#000000" stroke="#000000" points="1053.9851,-159.5001 1063.985,-156 1053.985,-152.5001 1053.9851,-159.5001"/>
</g>
<!-- RiderRegisterComponent -->
<g id="node10" class="node">
<title>RiderRegisterComponent</title>
<polygon fill="#ffffb3" stroke="#000000" points="880.587,-122 721.413,-122 721.413,-86 880.587,-86 880.587,-122"/>
<text text-anchor="middle" x="801" y="-99.8" font-family="Times,serif" font-size="14.00" fill="#000000">RiderRegisterComponent</text>
</g>
<!-- RiderRegisterComponent&#45;&gt;AppModule -->
<g id="edge10" class="edge">
<title>RiderRegisterComponent&#45;&gt;AppModule</title>
<path fill="none" stroke="#000000" d="M801,-122.027C801,-138.3976 801,-160 801,-160 801,-160 1054.2306,-160 1054.2306,-160"/>
<polygon fill="#000000" stroke="#000000" points="1054.2306,-163.5001 1064.2306,-160 1054.2305,-156.5001 1054.2306,-163.5001"/>
</g>
<!-- AppComponent  -->
<g id="node13" class="node">
<title>AppComponent </title>
<polygon fill="#80b1d3" stroke="#000000" points="1160.439,-252 1051.561,-252 1051.561,-216 1160.439,-216 1160.439,-252"/>
<text text-anchor="middle" x="1106" y="-229.8" font-family="Times,serif" font-size="14.00" fill="#000000">AppComponent </text>
</g>
<!-- AppModule&#45;&gt;AppComponent  -->
<g id="edge12" class="edge">
<title>AppModule&#45;&gt;AppComponent </title>
<path fill="none" stroke="#000000" stroke-dasharray="1,5" d="M1106,-187.1061C1106,-187.1061 1106,-205.991 1106,-205.991"/>
<polygon fill="#000000" stroke="#000000" points="1102.5001,-205.9909 1106,-215.991 1109.5001,-205.991 1102.5001,-205.9909"/>
</g>
<!-- AppRoutingModule -->
<g id="node12" class="node">
<title>AppRoutingModule</title>
<polygon fill="#8dd3c7" stroke="#000000" points="697.2744,-122 694.2744,-126 673.2744,-126 670.2744,-122 568.7256,-122 568.7256,-86 697.2744,-86 697.2744,-122"/>
<text text-anchor="middle" x="633" y="-99.8" font-family="Times,serif" font-size="14.00" fill="#000000">AppRoutingModule</text>
</g>
<!-- AppRoutingModule&#45;&gt;AppModule -->
<g id="edge11" class="edge">
<title>AppRoutingModule&#45;&gt;AppModule</title>
<path fill="none" stroke="#000000" d="M633,-122.302C633,-140.2699 633,-165 633,-165 633,-165 1054.0244,-165 1054.0244,-165"/>
<polygon fill="#000000" stroke="#000000" points="1054.0244,-168.5001 1064.0244,-165 1054.0244,-161.5001 1054.0244,-168.5001"/>
</g>
<!-- AuthService -->
<g id="node14" class="node">
<title>AuthService</title>
<ellipse fill="#fdb462" stroke="#000000" cx="486" cy="-104" rx="59.1083" ry="18"/>
<text text-anchor="middle" x="486" y="-99.8" font-family="Times,serif" font-size="14.00" fill="#000000">AuthService</text>
</g>
<!-- AuthService&#45;&gt;AppModule -->
<g id="edge13" class="edge">
<title>AuthService&#45;&gt;AppModule</title>
<path fill="none" stroke="#000000" d="M486,-122.1061C486,-141.3391 486,-169 486,-169 486,-169 1053.8723,-169 1053.8723,-169"/>
<polygon fill="#000000" stroke="#000000" points="1053.8724,-172.5001 1063.8723,-169 1053.8723,-165.5001 1053.8724,-172.5001"/>
</g>
<!-- BatchService -->
<g id="node15" class="node">
<title>BatchService</title>
<ellipse fill="#fdb462" stroke="#000000" cx="346" cy="-104" rx="62.5354" ry="18"/>
<text text-anchor="middle" x="346" y="-99.8" font-family="Times,serif" font-size="14.00" fill="#000000">BatchService</text>
</g>
<!-- BatchService&#45;&gt;AppModule -->
<g id="edge14" class="edge">
<title>BatchService&#45;&gt;AppModule</title>
<path fill="none" stroke="#000000" d="M346,-122.0267C346,-142.7672 346,-174 346,-174 346,-174 1054.3283,-174 1054.3283,-174"/>
<polygon fill="#000000" stroke="#000000" points="1054.3284,-177.5001 1064.3283,-174 1054.3283,-170.5001 1054.3284,-177.5001"/>
</g>
<!-- CarService -->
<g id="node16" class="node">
<title>CarService</title>
<ellipse fill="#fdb462" stroke="#000000" cx="212" cy="-104" rx="53.8673" ry="18"/>
<text text-anchor="middle" x="212" y="-99.8" font-family="Times,serif" font-size="14.00" fill="#000000">CarService</text>
</g>
<!-- CarService&#45;&gt;AppModule -->
<g id="edge15" class="edge">
<title>CarService&#45;&gt;AppModule</title>
<path fill="none" stroke="#000000" d="M212,-122.2921C212,-144.2057 212,-178 212,-178 212,-178 1054.0796,-178 1054.0796,-178"/>
<polygon fill="#000000" stroke="#000000" points="1054.0797,-181.5001 1064.0796,-178 1054.0796,-174.5001 1054.0797,-181.5001"/>
</g>
<!-- UserService -->
<g id="node17" class="node">
<title>UserService</title>
<ellipse fill="#fdb462" stroke="#000000" cx="82" cy="-104" rx="58.4415" ry="18"/>
<text text-anchor="middle" x="82" y="-99.8" font-family="Times,serif" font-size="14.00" fill="#000000">UserService</text>
</g>
<!-- UserService&#45;&gt;AppModule -->
<g id="edge16" class="edge">
<title>UserService&#45;&gt;AppModule</title>
<path fill="none" stroke="#000000" d="M82,-122.3228C82,-145.6602 82,-183 82,-183 82,-183 1054.2699,-183 1054.2699,-183"/>
<polygon fill="#000000" stroke="#000000" points="1054.2699,-186.5001 1064.2699,-183 1054.2698,-179.5001 1054.2699,-186.5001"/>
</g>
</g>
</svg>
